# Blender v3.2.2 OBJ File: ''
# www.blender.org
mtllib quadro.mtl
o Cube_Cube.003
v -1.132171 2.526911 -1.826936
v -1.132171 2.526911 1.820373
v 1.154959 2.526911 -1.826936
v 1.154959 2.526911 1.820373
v -1.132171 2.525140 -1.826936
v -1.132171 2.525140 1.820373
v 1.154959 2.525140 -1.826936
v 1.154959 2.525140 1.820373
v -0.912721 2.526911 -1.826936
v -0.912721 2.526911 1.820373
v -0.912721 2.525140 -1.826936
v -0.912721 2.525140 1.820373
v 0.921311 2.526911 1.820373
v 0.921311 2.525140 -1.826936
v 0.921311 2.526911 -1.826936
v 0.921311 2.525140 1.820373
v -1.132171 2.526911 1.600599
v 1.154959 2.526911 1.600599
v 1.154959 2.525140 1.600599
v -1.132171 2.525140 1.600599
v -0.912721 2.525140 1.600599
v -0.912721 2.526911 1.600599
v 0.921311 2.525140 1.600599
v 0.921311 2.526911 1.600599
v 1.154959 2.526911 -1.598122
v 1.154959 2.525140 -1.598122
v -1.132171 2.525140 -1.598122
v -0.912721 2.525140 -1.598122
v -0.912721 2.526911 -1.598122
v 0.921311 2.525140 -1.598122
v 0.921311 2.526911 -1.598122
v -1.132171 2.526911 -1.598122
v 1.154959 2.405673 -1.598122
v 1.154959 2.405673 -1.826936
v 0.921311 2.405673 -1.826936
v -0.912721 2.405673 1.820373
v -1.132171 2.405673 1.820373
v -1.132171 2.405673 -1.598122
v -1.132171 2.405673 -1.826936
v -0.912721 2.405673 -1.826936
v 0.921311 2.405673 1.820373
v -0.912721 2.405673 -1.598122
v 1.154959 2.405673 1.820373
v 0.921311 2.405673 -1.598122
v 1.154959 2.405673 1.600599
v -1.132171 2.405673 1.600599
v -0.912721 2.405673 1.600599
v 0.921311 2.405673 1.600599
vt 0.116467 0.580388
vt 0.131531 0.580388
vt 0.131531 0.605928
vt 0.116467 0.605928
vt 0.609936 0.250000
vt 0.625000 0.250000
vt 0.625000 0.500000
vt 0.609936 0.500000
vt 0.479744 0.871677
vt 0.494808 0.871677
vt 0.494808 0.871677
vt 0.479744 0.871677
vt 0.609936 0.750000
vt 0.625000 0.750000
vt 0.625000 1.000000
vt 0.609936 1.000000
vt 0.125000 0.726013
vt 0.375000 0.726013
vt 0.375000 0.750000
vt 0.125000 0.750000
vt 0.625000 0.726013
vt 0.875000 0.726013
vt 0.875000 0.750000
vt 0.625000 0.525539
vt 0.875000 0.525539
vt 0.125000 0.525539
vt 0.375000 0.525539
vt 0.137831 0.531839
vt 0.137831 0.732312
vt 0.137831 0.732312
vt 0.137831 0.531839
vt 0.116467 0.609487
vt 0.131531 0.609487
vt 0.131531 0.633474
vt 0.116467 0.633474
vt 0.127216 0.676730
vt 0.127216 0.651191
vt 0.127216 0.651191
vt 0.127216 0.676730
vt 0.125000 0.500000
vt 0.375000 0.500000
vt 0.875000 0.500000
vt 0.116467 0.542130
vt 0.131531 0.542130
vt 0.131531 0.742603
vt 0.116467 0.742603
vt 0.390684 0.406688
vt 0.609936 0.406688
vt 0.609936 0.607162
vt 0.390684 0.607162
vt 0.139815 0.710627
vt 0.139815 0.686640
vt 0.139815 0.686640
vt 0.139815 0.710627
vt 0.365485 0.855171
vt 0.584737 0.855171
vt 0.584737 0.879159
vt 0.365485 0.879159
vt 0.390684 0.525539
vt 0.609936 0.525539
vt 0.609936 0.726013
vt 0.390684 0.726013
vt 0.390684 0.750000
vt 0.390684 1.000000
vt 0.137715 0.757511
vt 0.137715 0.557037
vt 0.137715 0.557037
vt 0.137715 0.757511
vt 0.390684 0.250000
vt 0.390684 0.500000
vt 0.348686 0.859146
vt 0.567939 0.859146
vt 0.567939 0.884685
vt 0.348686 0.884685
vt 0.116716 0.566214
vt 0.132400 0.566214
vt 0.132400 0.591754
vt 0.116716 0.591754
vt 0.375000 0.250000
vt 0.339302 0.855928
vt 0.354986 0.855928
vt 0.354986 0.855928
vt 0.339302 0.855928
vt 0.375000 1.000000
vt 0.509142 0.873593
vt 0.289890 0.873593
vt 0.289890 0.873593
vt 0.509142 0.873593
vt 0.104117 0.549640
vt 0.119801 0.549640
vt 0.119801 0.573628
vt 0.104117 0.573628
vt 0.144999 0.549163
vt 0.144999 0.749636
vt 0.144999 0.749636
vt 0.144999 0.549163
vt 0.127216 0.521656
vt 0.142899 0.521656
vt 0.142899 0.722129
vt 0.127216 0.722129
vt 0.252958 0.858304
vt 0.268022 0.858304
vt 0.268022 0.882292
vt 0.252958 0.882292
vt 0.683902 0.869747
vt 0.684163 0.892358
vt 0.323688 0.892026
vt 0.323427 0.869415
vt 0.433547 0.855928
vt 0.448611 0.855928
vt 0.448611 0.881467
vt 0.433547 0.881467
vt 0.373885 0.860652
vt 0.593137 0.860652
vt 0.593137 0.886192
vt 0.373885 0.886192
vt 0.375985 0.856729
vt 0.595237 0.856729
vt 0.595237 0.880717
vt 0.375985 0.880717
vt 0.118816 0.653567
vt 0.134500 0.653567
vt 0.134500 0.677555
vt 0.118816 0.677555
vt 0.133515 0.546013
vt 0.149199 0.546013
vt 0.149199 0.746486
vt 0.133515 0.746486
vt 0.131415 0.539373
vt 0.147099 0.539373
vt 0.147099 0.564912
vt 0.131415 0.564912
vt 0.133631 0.598446
vt 0.133631 0.622433
vt 0.133631 0.622433
vt 0.133631 0.598446
vt 0.310889 0.874826
vt 0.530141 0.874826
vt 0.530141 0.874826
vt 0.310889 0.874826
vt 0.133631 0.561421
vt 0.133631 0.586961
vt 0.133631 0.586961
vt 0.133631 0.561421
vt 0.412913 0.850794
vt 0.397849 0.850794
vt 0.397849 0.850794
vt 0.412913 0.850794
vt 0.331887 0.852369
vt 0.316204 0.852369
vt 0.316204 0.852369
vt 0.331887 0.852369
vt 0.498643 0.860243
vt 0.279391 0.860243
vt 0.279391 0.860243
vt 0.498643 0.860243
vt 0.126966 0.719713
vt 0.126966 0.519240
vt 0.126966 0.519240
vt 0.126966 0.719713
vt 0.315088 0.874053
vt 0.534341 0.874053
vt 0.534341 0.874053
vt 0.315088 0.874053
vn 0.0000 1.0000 0.0000
vn 1.0000 0.0000 0.0000
vn -1.0000 0.0000 0.0000
vn 0.0000 0.0000 -1.0000
vn 0.0000 0.0000 1.0000
vn 0.0000 -1.0000 -0.0000
usemtl cornice
s off
f 24/1/1 13/2/1 4/3/1 18/4/1
f 18/5/2 4/6/2 8/7/2 19/8/2
f 19/9/2 8/10/2 43/11/2 45/12/2
f 20/13/3 6/14/3 2/15/3 17/16/3
f 9/17/4 11/18/4 5/19/4 1/20/4
f 12/21/5 10/22/5 2/23/5 6/14/5
f 16/24/5 13/25/5 10/22/5 12/21/5
f 15/26/4 14/27/4 11/18/4 9/17/4
f 16/28/5 12/29/5 36/30/5 41/31/5
f 17/32/1 2/33/1 10/34/1 22/35/1
f 14/36/4 7/37/4 34/38/4 35/39/4
f 3/40/4 7/41/4 14/27/4 15/26/4
f 8/7/5 4/42/5 13/25/5 16/24/5
f 22/43/1 10/44/1 13/45/1 24/46/1
f 29/47/1 22/48/1 24/49/1 31/50/1
f 5/51/4 11/52/4 40/53/4 39/54/4
f 32/55/1 17/56/1 22/57/1 29/58/1
f 30/59/6 23/60/6 21/61/6 28/62/6
f 27/63/3 20/13/3 17/16/3 32/64/3
f 11/65/4 14/66/4 35/67/4 40/68/4
f 25/69/2 18/5/2 19/8/2 26/70/2
f 31/71/1 24/72/1 18/73/1 25/74/1
f 15/75/1 31/76/1 25/77/1 3/78/1
f 3/79/2 25/69/2 26/70/2 7/41/2
f 7/80/2 26/81/2 33/82/2 34/83/2
f 5/19/3 27/63/3 32/64/3 1/84/3
f 23/85/3 30/86/3 44/87/3 48/88/3
f 1/89/1 32/90/1 29/91/1 9/92/1
f 30/93/5 28/94/5 42/95/5 44/96/5
f 9/97/1 29/98/1 31/99/1 15/100/1
f 47/101/6 36/102/6 37/103/6 46/104/6
f 48/105/6 41/106/6 36/107/6 47/108/6
f 45/109/6 43/110/6 41/111/6 48/112/6
f 33/113/6 45/114/6 48/115/6 44/116/6
f 42/117/6 47/118/6 46/119/6 38/120/6
f 40/121/6 42/122/6 38/123/6 39/124/6
f 35/125/6 44/126/6 42/127/6 40/128/6
f 34/129/6 33/130/6 44/131/6 35/132/6
f 12/133/5 6/134/5 37/135/5 36/136/5
f 26/137/2 19/138/2 45/139/2 33/140/2
f 8/141/5 16/142/5 41/143/5 43/144/5
f 6/145/3 20/146/3 46/147/3 37/148/3
f 27/149/3 5/150/3 39/151/3 38/152/3
f 20/153/3 27/154/3 38/155/3 46/156/3
f 21/157/4 23/158/4 48/159/4 47/160/4
f 28/161/2 21/162/2 47/163/2 42/164/2
